<?xml version="1.0" encoding="UTF-8"?>
<svg focusable="false" width="70px" height="70px" viewBox="0 0 70 70" version="1.1" xmlns="http://www.w3.org/2000/svg" xmlns:xlink="http://www.w3.org/1999/xlink">
    <!-- Generator: Sketch 52.4 (67378) - http://www.bohemiancoding.com/sketch -->
    <title>tech-LT-BG/AssistSlipperClutch</title>
    <desc>Created with Sketch.</desc>
    <g id="tech-LT-BG/AssistSlipperClutch" stroke="none" stroke-width="1" fill="none" fill-rule="evenodd">
        <path d="M8,0 L61,0 C65.418278,-8.11624501e-16 69,3.581722 69,8 L69,62 C69,66.418278 65.418278,70 61,70 L8,70 C3.581722,70 5.41083001e-16,64.9861491 0,60.5678711 L0,9.42871094 C-5.41083001e-16,5.01043294 3.581722,8.11624501e-16 8,0 Z" id="Rectangle-2" fill="#FFFFFF"></path>
        <path d="M35.9435674,43.7291237 C38.8384454,43.7291237 41.1872803,42.9653008 41.1872803,42.0219424 C41.1872803,41.0796463 38.8384454,40.3136988 35.9435674,40.3136988 C33.0465647,40.3136988 30.6987921,41.0796463 30.6987921,42.0219424 C30.6987921,42.9653008 33.0465647,43.7291237 35.9435674,43.7291237 Z M25.2936035,39.70604 C22.525144,40.4464914 21.049553,41.6352505 21.1621611,42.2854029 C21.1143558,42.5605491 21.3661305,42.9323683 21.8633059,43.3243719 C21.9960984,43.2457587 22.1363274,43.1735196 22.2808057,43.1108415 C22.9511426,42.8346329 23.8105761,42.6774065 24.7603085,42.6774065 C25.7079163,42.6774065 26.5705368,42.8346329 27.2408737,43.1108415 C27.8825274,43.3912994 28.4742511,43.7971135 28.5071836,44.5524376 C28.4891238,44.9465659 28.3170247,45.2440213 28.068437,45.4798609 C30.3843393,45.8846126 33.1177416,46.1257639 36.0551131,46.1257639 C39.1953918,46.1257639 42.1125789,45.8538047 44.5230296,45.3969983 C44.1575844,45.1377872 43.8803136,44.7978382 43.8580044,44.2974758 C43.890937,43.5421517 44.4826607,43.1331506 45.1253767,42.8580044 C45.7946512,42.5775465 46.6551471,42.4224448 47.6048795,42.4203201 C48.5546119,42.4224448 49.4140454,42.5775465 50.0854447,42.8580044 C50.2373594,42.9217448 50.386087,42.997171 50.526316,43.0821583 C50.8301454,42.7804536 50.9841848,42.5031827 50.9470028,42.2854029 C51.0596109,41.6352505 49.5840199,40.4464914 46.8166228,39.70604 C44.8151732,39.1376878 42.2198753,38.7265621 39.3154363,38.5459642 C39.077472,38.8806014 38.7088398,39.1206904 38.3040881,39.2949142 C37.6337512,39.5753721 36.772193,39.7283492 35.8235229,39.7304739 C34.8737905,39.7283492 34.0132946,39.5753721 33.3429577,39.2949142 C32.9509541,39.1270644 32.5929453,38.8944119 32.3539187,38.5788967 C29.6290152,38.7722427 27.192006,39.166371 25.2936035,39.70604 Z M33.1358013,37.8554428 C33.137926,37.8618169 33.1400507,37.9032481 33.2271626,37.9924847 C33.2292873,37.9946094 33.2292873,37.9967341 33.2324743,37.9977964 C33.324898,38.0934071 33.5076205,38.2123892 33.7519589,38.3154363 C33.8985618,38.3759897 34.070661,38.430169 34.2555083,38.4779744 C34.6985043,38.5937695 35.2381733,38.6681333 35.8235229,38.6681333 C36.42587,38.6745074 36.9867858,38.5895201 37.4393429,38.4652263 C37.9152714,38.3324337 38.2700932,38.1582099 38.4135091,37.9977964 C38.4262572,37.9861107 38.4251949,37.9818613 38.434756,37.9712379 C38.4984964,37.8989988 38.5080575,37.8596922 38.5101821,37.8554428 C38.5101821,37.8533181 38.4113845,37.6206656 37.9428923,37.4177585 C37.9227078,37.4092598 37.9131468,37.4007611 37.8929623,37.3922623 C37.3979116,37.1851059 36.6510862,37.0374406 35.8235229,37.0395653 L35.7480967,37.0395653 C34.8886632,37.0395653 34.1216534,37.2244125 33.6499742,37.4400677 C33.4587529,37.5271796 33.3110875,37.6206656 33.2324743,37.7077775 C33.1358013,37.8055128 33.137926,37.8469441 33.1358013,37.8554428 Z M50.2915387,44.2974758 C50.289414,44.2911018 50.2915387,44.2496705 50.1948657,44.1498105 C50.1746813,44.129626 50.1343123,44.1051922 50.1056291,44.0818207 C50.0036444,44.0032075 49.8666025,43.9160956 49.6743189,43.8353577 C49.6360746,43.8183603 49.5861446,43.8056122 49.5447133,43.7918017 C49.053912,43.6090792 48.36764,43.4826607 47.6048795,43.4826607 L47.5411391,43.4826607 C46.3300709,43.4826607 45.2911018,43.8470435 45.0148933,44.1498105 C44.9192826,44.2496705 44.9192826,44.2911018 44.9192826,44.2974758 C44.9192826,44.3038499 44.9192826,44.3431565 45.0148933,44.4430165 C45.1094416,44.5365025 45.2900395,44.6565469 45.5354401,44.7606563 C45.7542823,44.8520176 46.0283661,44.9285061 46.3300709,44.9890595 C46.7125134,45.0655481 47.1427614,45.1133534 47.6048795,45.1133534 C47.678181,45.1154781 47.7493578,45.109104 47.8226593,45.109104 C48.9678624,45.0793585 49.9324676,44.7330355 50.1948657,44.4451412 C50.2915387,44.3452812 50.289414,44.3038499 50.2915387,44.2974758 Z M27.4469677,44.5524376 C27.4448431,44.5471259 27.4469677,44.5046323 27.3502948,44.4079593 C27.2578711,44.3144733 27.0772732,44.1954912 26.8297479,44.0924441 C26.3346972,43.883163 25.5857471,43.7376224 24.7603085,43.7397471 C24.0687248,43.7312483 23.4376945,43.8449188 22.958579,43.9989582 C22.6983055,44.0839454 22.4826504,44.179556 22.3339227,44.2751667 C22.2659329,44.3208473 22.2075042,44.3644033 22.1681976,44.4079593 C22.072587,44.5046323 22.075774,44.5471259 22.072587,44.5524376 C22.072587,44.5545623 22.1681976,44.806337 22.6887445,45.0156181 C23.1837952,45.2227745 23.9327452,45.3704398 24.7603085,45.3683151 C24.873979,45.3683151 24.9844624,45.3640657 25.0949458,45.3598164 C25.5899965,45.3375072 26.0489276,45.2599564 26.4239338,45.15266 C26.8775532,45.0219921 27.2111281,44.8541423 27.3502948,44.7001029 C27.4469677,44.6023676 27.4448431,44.5609363 27.4469677,44.5524376 Z M22.4773387,37.6227902 C24.7496851,36.9811365 26.5269808,36.7495463 26.5269808,36.7495463 L27.725301,38.0710979 C29.0787228,37.827822 30.5670619,37.6429747 32.1541987,37.5271796 C32.3220485,36.9832612 32.8043511,36.6454369 33.3429577,36.4127844 C34.0132946,36.1333888 34.8737905,35.9772247 35.8235229,35.9772247 C36.772193,35.9772247 37.6337512,36.1333888 38.3040881,36.4127844 C38.8320713,36.6390629 39.3069375,36.9694508 39.4843484,37.494247 C41.1947167,37.6015434 42.7956639,37.7927647 44.2489457,38.0477264 L45.4345178,36.7410476 C45.4345178,36.7410476 47.2118135,36.9737002 49.4841599,37.6142915 C51.7565063,38.2538205 53.9661747,40.4316186 53.9661747,40.4316186 L51.5376642,41.0339657 C51.8128104,41.4047226 51.9817225,41.8158483 52.0114681,42.2854029 C51.9721615,42.8994357 51.6948906,43.4136085 51.2476452,43.8682903 C51.3007622,43.9989582 51.3443182,44.1360001 51.3517546,44.2974758 C51.318822,45.0506753 50.7270983,45.4618011 50.0854447,45.7380096 C49.4140454,46.0174052 48.5546119,46.1735692 47.6048795,46.1756939 C47.1693199,46.1735692 46.7581941,46.138512 46.3704398,46.0758339 C44.8438564,46.4550895 43.0697477,46.7525448 41.1214152,46.9427038 L42.1263893,48.6010174 C42.1263893,48.6010174 37.9025233,49.2192996 35.8936374,49.2192996 C33.8252604,49.2192996 29.9222212,48.7125631 29.9222212,48.7125631 L30.9186966,46.9352674 C29.2880039,46.774854 27.7794803,46.5390144 26.4377442,46.2394344 C25.9299455,46.3605412 25.3658426,46.4306557 24.7603085,46.4306557 C23.8105761,46.428531 22.9511426,46.2734293 22.2808057,45.995096 C21.6380897,45.7167628 21.0442413,45.3077617 21.0113088,44.5524376 C21.0187451,44.3845878 21.0623011,44.2390471 21.1196675,44.1051922 C20.5173204,43.5963311 20.1455012,43.0067321 20.0998206,42.2854029 C20.1285038,41.8328458 20.2836055,41.4323434 20.5396296,41.0711476 L17.995324,40.4401173 C17.995324,40.4401173 20.2060546,38.2623192 22.4773387,37.6227902 Z M67.4037201,56.0108426 C66.7142611,57.5979794 64.6968765,59.1808668 61.6192759,60.5236653 L61.6192759,61.4255924 C64.243257,60.3260699 66.2510807,59.0523236 67.4037201,57.5979794 L67.4037201,56.0108426 Z M67.4037201,59.2945373 C66.7163858,60.8837987 64.6990011,62.4677484 61.6192759,63.8116092 L61.6192759,64.7145987 C64.243257,63.6150762 66.2510807,62.3423923 67.4037201,60.8859234 L67.4037201,59.2945373 Z M67.4037201,62.8576274 C66.7163858,64.4468889 64.6990011,66.031901 61.6192759,67.3768241 L61.6192759,68.2766265 C64.243257,67.1792287 66.2510807,65.9054824 67.4037201,64.4511382 L67.4037201,62.8576274 Z M67.237995,53.2838145 C67.3155459,53.1722687 67.3686629,53.0894062 67.4015955,53.0309774 C67.4005331,52.6910285 67.4005331,51.7402337 67.4005331,50.5164174 C67.4005331,50.1796554 67.4005331,49.816335 67.4015955,49.4455781 C67.031901,49.8938858 66.5974037,50.3751261 66.1809662,50.7299478 C64.5226526,52.1364867 61.6904527,54.0518867 61.6904527,54.0518867 L61.6681436,52.2427207 C58.0848689,54.545875 52.6393113,56.5951299 44.3753643,57.4354413 L44.4157332,58.5933925 C44.4157332,58.5933925 39.9273444,59.0958796 35.9764999,59.0958796 C32.0192814,59.0958796 27.7083035,58.5933925 27.7083035,58.5933925 L27.7433608,57.4736856 C20.0127086,56.7279225 14.7424372,54.935754 11.1326041,52.8355068 L11.1283547,54.8985721 C11.1283547,54.8985721 7.89140308,52.6719063 6.8566834,51.8252209 C5.21855429,50.4824225 4.48022761,49.1906164 4.48022761,49.1906164 L4.47704059,49.1343123 L4.47704059,52.4583759 C4.51103549,52.5199916 4.56521485,52.6134776 4.64701507,52.7420208 C4.81592722,53.0022942 5.09001108,53.3836745 5.50432389,53.8436679 C6.33719887,54.7700289 7.72886498,56.0204037 9.97677756,57.2803396 C10.2561731,57.437566 10.5493791,57.5958547 10.8563955,57.7520188 C11.0614273,57.8571905 11.2813317,57.9602375 11.4980492,58.0643469 C11.6074703,58.1174639 11.709455,58.170581 11.8210007,58.2226356 C16.5112342,60.3951221 24.0124208,62.3530157 35.8171489,62.3668261 C35.8596425,62.3668261 35.8978867,62.3678884 35.9403804,62.3678884 C59.7028136,62.3593897 66.0747321,54.9708113 67.237995,53.2838145 Z M44.6685702,64.2854131 C41.8841757,64.5403748 38.9553028,64.6859155 35.9170089,64.6859155 C33.0476271,64.6859155 30.2812923,64.5531229 27.6371267,64.3247197 L27.6371267,65.1671558 C30.2664195,65.3902473 33.0136322,65.5219775 35.8617672,65.5230398 C35.879827,65.5230398 35.8978867,65.5241022 35.9170089,65.5241022 C38.9531781,65.5241022 41.8809887,65.3785615 44.6685702,65.1278492 L44.6685702,64.2854131 Z M44.6685702,67.5754818 C41.8841757,67.8293812 38.9553028,67.9738595 35.9170089,67.9738595 C33.0476271,67.9738595 30.2812923,67.8410669 27.6371267,67.6126637 L27.6371267,68.452975 C30.2664195,68.6760666 33.0146945,68.8077968 35.8628295,68.8088591 C35.879827,68.8088591 35.8978867,68.8099215 35.9170089,68.8099215 C38.9531781,68.8099215 41.8809887,68.6654432 44.6685702,68.4136684 L44.6685702,67.5754818 Z M10.6874834,60.7223229 C7.4016641,59.3614647 5.22174131,57.7328967 4.46110548,56.0958299 L4.46110548,57.637286 C5.6881088,59.1617447 7.85422117,60.4875457 10.6874834,61.6189384 L10.6874834,60.7223229 Z M10.6874834,64.0113293 C7.40060175,62.650471 5.22067897,61.0208406 4.46110548,59.3816492 L4.46110548,60.92523 C5.6881088,62.450751 7.85422117,63.776552 10.6874834,64.9079447 L10.6874834,64.0113293 Z M10.6874834,67.5754818 C7.40060175,66.2146235 5.22174131,64.5860555 4.46110548,62.946864 L4.46110548,64.4883202 C5.6881088,66.0159659 7.85422117,67.3417668 10.6874834,68.4720972 L10.6874834,67.5754818 Z M4.47704059,42.6604091 C4.48128995,42.6880299 4.48553931,42.8601291 4.54609272,43.1979534 C4.60983316,43.5697726 4.74050104,44.1083792 4.99121341,44.7585316 C5.127193,45.1133534 5.30354153,45.5032324 5.520259,45.9143581 L8.84963425,45.0921066 C8.66372466,44.6937289 8.53093209,44.2826031 8.46187995,43.8576669 L6.53054485,44.1997405 C6.53054485,44.1997405 5.68385944,43.2659432 6.21502971,41.6745571 C6.76850913,40.0130564 8.18992078,38.8327961 8.18992078,38.8327961 L10.3740929,39.2226751 C10.6386157,38.9730251 10.9211983,38.7265621 11.2324641,38.4875354 L7.74373775,37.6036681 C5.23236471,39.65611 4.46535484,41.6628713 4.47704059,42.6604091 Z M8.88150447,31.8394083 L14.763684,31.8394083 L16.2159036,24.3881518 L22.6462508,24.3881518 L23.8828152,30.7430729 C25.6452382,30.5019216 27.5478901,30.3117626 29.603519,30.1832194 L23.3123384,2.42957282 L15.9014508,2.42957282 L8.88150447,31.8394083 Z M18.2800312,33.603956 C18.2800312,33.603956 21.236525,32.8401331 23.261346,32.5575505 C25.5899965,32.2324743 27.4448431,32.1262403 27.4448431,32.1262403 L27.588259,33.2193887 C27.8952755,33.1822068 28.2086659,33.1513989 28.520994,33.1184663 L28.561363,31.8394083 L28.5783604,31.3167368 C26.9795379,31.4378436 25.4911988,31.5993194 24.087847,31.7905407 C23.2209771,31.9073981 22.3923515,32.038066 21.5966584,32.1793573 C21.5881597,32.1804196 21.5796609,32.181482 21.5711622,32.1836067 C20.7744068,32.324898 20.0116463,32.4768127 19.2818184,32.6404131 L19.2796937,32.6404131 C18.6242296,32.7859538 18.004885,32.9431802 17.4036003,33.1035936 C17.2708077,33.1397132 17.1369528,33.1747704 17.0062849,33.2130146 C16.4092495,33.3787398 15.8313363,33.5497766 15.2895426,33.7282498 L19.7120663,34.7215382 C20.2262391,34.5813093 20.746786,34.446392 21.286455,34.3178488 L18.2800312,33.603956 Z M14.8943519,51.8517794 L17.6341282,51.0114681 C17.3196754,50.908421 16.9903498,50.808561 16.6886451,50.6991399 C16.4623666,50.615215 16.2424621,50.5281031 16.0225576,50.4409912 L11.3854411,51.7529818 C14.8252998,53.8234835 19.9935865,55.6496469 27.7773557,56.4070957 L27.8804027,53.1818298 C27.382165,53.1265881 26.9030494,53.0532866 26.4186221,52.9874215 L26.0776108,54.9686866 C26.0776108,54.9686866 23.0711871,54.5479997 20.2581093,53.9042214 C17.4460939,53.2615053 14.8943519,51.8517794 14.8943519,51.8517794 Z M58.0519364,51.6159398 C58.0519364,51.6159398 55.2611678,53.0224787 52.4534017,53.6864415 C49.3747388,54.4130825 46.2950136,54.8507668 46.2950136,54.8507668 L45.9210697,52.9566136 C45.3622786,53.0352268 44.8066745,53.1159647 44.2308859,53.1818298 L44.3392447,56.3688514 C52.6180645,55.518979 57.9223308,53.4495396 61.3218206,51.204814 L56.9354165,50.0904188 C56.4488645,50.3007622 55.9453151,50.5036693 55.4194565,50.6991399 L58.0519364,51.6159398 Z M35.8437074,33.7919902 C31.2501469,33.803676 26.9306702,34.2371109 23.1699847,34.9881857 C23.0839352,35.0062455 23.0042596,35.0274923 22.9192724,35.0444897 C22.2574342,35.179407 21.6072818,35.3217606 20.9836879,35.4758 C20.7149157,35.5427275 20.4673904,35.6181536 20.2060546,35.6893304 C19.7800561,35.8030009 19.3466211,35.9134843 18.940807,36.0356535 C18.2842806,36.2332488 17.655375,36.4435922 17.0562149,36.6624344 C12.1928199,38.423795 9.40205133,40.8799263 9.4562307,43.1809559 C9.40205133,45.4819855 12.1928199,47.9391792 17.0562149,49.7005398 C17.655375,49.9204443 18.2853429,50.1297254 18.940807,50.3294454 C19.3731796,50.459051 19.8342354,50.5769708 20.2899795,50.6991399 C20.5236944,50.7607557 20.7435989,50.8298078 20.9847502,50.8882366 C21.6147182,51.045463 22.2701823,51.1878166 22.9383945,51.3237962 C23.01807,51.3407936 23.0913715,51.3609781 23.1721094,51.3758509 C26.9338573,52.1258633 31.2543962,52.5592982 35.8468944,52.570984 C35.9180712,52.570984 35.9849987,52.574171 36.0551131,52.574171 C43.4914969,52.5762957 50.2256736,51.4703992 55.0540114,49.7005398 C59.9174064,47.9391792 62.7060503,45.4819855 62.6539956,43.1809559 C62.6571826,43.0502881 62.6476215,42.9196202 62.6327488,42.7889523 L62.1674436,41.4302187 C61.1730929,39.6890426 58.6957147,37.9818613 55.0540114,36.6624344 C50.2256736,34.8946997 43.4914969,33.7845539 36.0551131,33.7888032 L36.0338663,33.7888032 C35.9690636,33.7888032 35.9085102,33.7919902 35.8437074,33.7919902 Z M43.4872476,31.3252355 L43.547801,33.114217 C43.8537551,33.1471495 44.1628961,33.1758327 44.4646009,33.2119523 L44.5187802,31.941393 C44.5187802,31.941393 46.6339002,32.1634222 48.6502226,32.4938101 C50.6814177,32.8252604 53.4052588,33.36068 53.4052588,33.36068 L50.5486251,34.2572954 C50.928943,34.3444073 51.3103233,34.4315192 51.6789555,34.5250052 L55.9155695,33.4796621 C54.7671794,33.1269651 53.5040565,32.8018889 52.1315125,32.5118699 C51.0118056,32.4460048 50.0280783,32.2611575 49.1686448,31.9732632 C47.4306557,31.7023664 45.5471259,31.4813996 43.4872476,31.3252355 Z M60.1319991,37.9606145 C60.5410003,38.2325737 60.9191935,38.5130316 61.2665788,38.8030506 L61.2633918,38.7945518 L63.3859482,38.2718803 C63.3859482,38.2718803 63.9893577,38.5873954 65.2301714,40.2542077 C66.9564748,42.5711725 65.9546877,43.876789 65.9546877,43.876789 L63.6919023,43.4529151 C63.6642814,43.8289837 63.5899176,44.1954912 63.4730601,44.5524376 L66.7556924,45.2897019 C67.2581795,44.2103639 67.3760993,43.4943464 67.4005331,43.3243719 C67.3973461,41.7871651 66.4794839,39.3512183 63.3795742,37.04169 L60.1319991,37.9606145 Z M67.6161883,67.3286812 C67.2858003,67.5762066 66.6303362,67.98627 65.4171433,68.4908818 C64.1975764,68.9997429 62.4287794,70.0178027 61.6192759,69.9933688 L60.7842762,69.9976182 L60.7842762,59.2902879 C57.3391059,60.8423674 52.4321549,62.2786518 45.5046323,62.9797966 L45.5046323,69.9763714 L44.6685702,69.9763714 L27.6371267,69.9827454 L26.802127,69.9763714 L26.802127,62.9989187 C19.9372825,62.3030857 15.0186458,60.8487415 11.5235454,59.2488566 L11.6032209,69.9391895 L10.6874834,69.9699973 L8.40132654,69.8584516 C3.99898735,69.2104239 1.08043347,66.3286812 1,65.1464844 L0.600097656,8.18994141 C0.608596381,3.46571302 4.83079999,0.00849872432 9.55502837,0 L35.8458321,0 L35.8532684,29.9877488 C39.969838,29.9888111 43.5201801,30.1970299 46.6530224,30.5582256 C44.8661656,28.9700265 44.134213,26.531955 44.134213,23.6041445 L44.134213,21.4486555 L49.6243889,21.4486555 L49.6243889,23.1728342 C49.5064691,26.035842 50.3690896,28.1137801 53.0738086,28.1137801 C55.389711,28.1137801 56.4871088,26.8995248 56.4871088,24.6622356 C56.4871088,22.9380569 55.7031014,21.762046 54.2912509,20.7804433 C51.4282431,18.5452788 47.8598412,16.9379576 45.6246767,13.9963366 C44.7227496,12.6630992 44.2117638,11.055778 44.2117638,9.48670102 C44.2117638,4.46714197 47.035465,1.72205402 52.8390313,1.72205402 C61.585281,1.72205402 61.3494414,8.46791645 61.3876857,11.3691685 L56.0951051,11.3691685 C56.1344117,8.74200031 55.8975098,6.15307641 52.8783379,6.15307641 C51.0362394,6.15307641 49.8602285,6.89990181 49.8602285,8.89922671 C49.8602285,11.1343912 51.272079,11.9959494 52.9973201,13.0954718 C54.800112,14.2321762 58.1347989,16.4280341 59.663507,17.9195602 C61.5459744,19.7616587 62.1334487,21.525144 62.1334487,24.0758237 C62.1334487,28.7055037 59.5795821,31.4856489 55.6308623,32.2919654 C65.6519206,35.2080902 68.4299411,40.2233999 68.4649983,43.33712 C68.463936,44.0255167 68.463936,44.8307708 68.463936,45.6732068 C68.4628737,47.4409415 68.4660607,66.3286812 68.4660607,66.3286812 L67.6161883,67.3286812 Z M21.782568,20.0750492 L17.0774617,20.0750492 L18.7251519,11.7239902 C18.9992358,10.3503839 19.1171556,9.01820885 19.274382,7.64460253 C19.3136886,6.97745267 19.3912394,6.31030281 19.4698526,5.68352189 L19.5474035,5.68352189 C19.627079,6.31030281 19.7046299,6.97745267 19.7449988,7.64460253 C19.9001006,9.01820885 20.0190827,10.3503839 20.2942289,11.7239902 L21.782568,20.0750492 Z" id="assist-slipper-clutch" fill="#000000"></path>
        <path d="M62.113,0 L7.887,0 C3.531,0 0,3.531 0,7.887 L0,62.113 C0,66.469 3.531,70 7.887,70 L62.113,70 C66.469,70 70,66.469 70,62.113 L70,7.887 C70,3.531 66.469,0 62.113,0 Z M68.027,62.113 C68.027,65.38 65.38,68.027 62.113,68.027 L7.887,68.027 C4.62,68.027 1.971,65.38 1.971,62.113 L1.971,7.887 C1.971,4.62 4.619,1.971 7.887,1.971 L62.113,1.971 C65.38,1.971 68.027,4.619 68.027,7.887 L68.027,62.113 Z" id="outline" fill="#000000" fill-rule="nonzero"></path>
    </g>
</svg>