<?xml version="1.0" encoding="UTF-8"?>
<svg focusable="false" width="70px" height="70px" viewBox="0 0 70 70" version="1.1" xmlns="http://www.w3.org/2000/svg" xmlns:xlink="http://www.w3.org/1999/xlink">
    <!-- Generator: Sketch 52.4 (67378) - http://www.bohemiancoding.com/sketch -->
    <title>tech-LT-BG/EcoRidingIndicator</title>
    <desc>Created with Sketch.</desc>
    <g id="tech-LT-BG/EcoRidingIndicator" stroke="none" stroke-width="1" fill="none" fill-rule="evenodd">
        <path d="M8,0 L61,0 C65.418278,-8.11624501e-16 69,3.581722 69,8 L69,62 C69,66.418278 65.418278,70 61,70 L8,70 C3.581722,70 5.41083001e-16,64.9861491 0,60.5678711 L0,9.42871094 C-5.41083001e-16,5.01043294 3.581722,8.11624501e-16 8,0 Z" id="Rectangle-2" fill="#FFFFFF"></path>
        <path d="M42.858,42.878 C42.185,43.551 41.322,43.888 40.272,43.888 C39.221,43.888 38.358,43.551 37.687,42.878 C37.055,42.246 36.74,41.387 36.74,40.293 C36.74,39.324 37.055,38.529 37.687,37.896 C38.399,37.183 39.261,36.824 40.272,36.824 C41.282,36.824 42.141,37.183 42.858,37.896 C43.489,38.529 43.803,39.324 43.803,40.293 C43.803,41.387 43.489,42.246 42.858,42.878 Z M40.272,35.941 C38.8,35.941 37.602,36.405 36.679,37.329 C35.881,38.13 35.479,39.118 35.479,40.293 C35.479,41.638 35.858,42.69 36.615,43.447 C37.498,44.328 38.716,44.769 40.272,44.769 C41.827,44.769 43.045,44.328 43.928,43.447 C44.689,42.69 45.063,41.638 45.063,40.293 C45.063,39.118 44.664,38.13 43.866,37.329 C42.942,36.405 41.743,35.941 40.272,35.941 Z M32.123,27.269 C32.796,26.594 33.552,26.26 34.394,26.26 C35.275,26.26 36.012,26.553 36.601,27.142 C37.106,27.646 37.357,28.173 37.357,28.718 C37.357,28.929 37.254,29.033 37.045,29.033 L31.239,29.033 C31.367,28.319 31.662,27.731 32.123,27.269 Z M38.368,31.683 C38.452,31.346 38.368,31.116 38.115,30.987 C37.821,30.863 37.589,30.948 37.421,31.24 C37.296,31.66 37.083,32.039 36.79,32.375 C36.242,33.006 35.466,33.321 34.457,33.321 C33.574,33.321 32.796,32.985 32.123,32.311 C31.534,31.722 31.239,30.926 31.239,29.917 L37.797,29.917 C38.343,29.917 38.619,29.643 38.619,29.095 C38.619,28.132 38.262,27.289 37.547,26.573 C36.749,25.778 35.719,25.377 34.457,25.377 C33.154,25.377 32.082,25.797 31.239,26.637 C30.4,27.48 29.98,28.465 29.98,29.602 C29.98,30.987 30.4,32.103 31.239,32.941 C32.082,33.785 33.172,34.203 34.52,34.203 C35.907,34.203 36.917,33.826 37.547,33.068 C37.968,32.565 38.241,32.103 38.368,31.683 Z M32.46,42.061 C32.291,42.647 31.953,43.194 31.449,43.696 C30.734,44.413 29.706,44.769 28.359,44.769 C27.015,44.769 25.924,44.349 25.082,43.51 C24.24,42.667 23.819,41.614 23.819,40.357 C23.819,39.137 24.263,38.087 25.144,37.205 C25.986,36.363 27.057,35.941 28.359,35.941 C29.706,35.941 30.777,36.363 31.577,37.205 C31.913,37.539 32.144,37.876 32.269,38.214 C32.439,38.59 32.374,38.883 32.081,39.096 C31.703,39.222 31.43,39.118 31.262,38.778 C30.63,37.478 29.685,36.824 28.424,36.824 C27.497,36.824 26.721,37.142 26.091,37.773 C25.419,38.442 25.082,39.307 25.082,40.357 C25.082,41.451 25.397,42.312 26.027,42.94 C26.659,43.57 27.456,43.888 28.424,43.888 C29.349,43.888 30.064,43.635 30.568,43.131 C30.904,42.793 31.156,42.375 31.324,41.868 C31.449,41.489 31.682,41.344 32.018,41.429 C32.354,41.471 32.502,41.681 32.46,42.061 Z M54.053,44.254 L48.263,41.864 L48.938,40.229 L54.729,42.619 L54.053,44.254 Z M53.515,26.289 L54.194,27.922 L48.408,30.322 L47.731,28.691 L53.515,26.289 Z M40.84,47.316 C39.789,47.316 38.795,47.061 37.914,46.615 C37.801,46.556 37.369,46.311 37.269,46.246 C36.389,45.799 35.4,45.543 34.345,45.543 C33.29,45.543 32.299,45.799 31.42,46.243 C31.32,46.311 30.884,46.559 30.769,46.616 C29.893,47.061 28.901,47.316 27.849,47.316 C24.257,47.316 21.347,44.405 21.347,40.815 C21.347,38.465 22.596,36.415 24.463,35.272 L24.754,35.096 C26.536,34.006 27.749,32.083 27.856,29.869 C27.853,29.778 27.855,29.363 27.858,29.274 C28.026,25.831 30.86,23.091 34.345,23.091 C37.912,23.091 40.804,25.963 40.841,29.521 C40.846,31.924 42.115,34.014 44.019,35.143 L44.075,35.179 C46.026,36.3 47.343,38.403 47.343,40.815 C47.343,44.405 44.43,47.316 40.84,47.316 Z M41.637,55.038 L39.234,49.253 L40.865,48.576 L43.269,54.359 L41.637,55.038 Z M27.112,55.053 L25.478,54.378 L27.868,48.59 L29.505,49.263 L27.112,55.053 Z M20.298,30.352 L14.507,27.96 L15.183,26.323 L20.969,28.715 L20.298,30.352 Z M14.639,44.502 L13.96,42.871 L19.748,40.468 L20.426,42.1 L14.639,44.502 Z M27.074,15.366 L29.479,21.15 L27.847,21.83 L25.441,16.044 L27.074,15.366 Z M41.6,15.354 L43.238,16.027 L40.842,21.817 L39.208,21.142 L41.6,15.354 Z M57.297,8 L11.393,8 C8.414,8 6,10.435 6,13.433 L6,56.976 C6,59.974 8.414,62.407 11.393,62.407 L57.297,62.407 C60.274,62.407 62.691,59.974 62.691,56.976 L62.691,13.433 C62.691,10.435 60.274,8 57.297,8 Z" id="Eco-Riding-Indicators" fill="#000000"></path>
        <path d="M62.113,0 L7.887,0 C3.531,0 0,3.531 0,7.887 L0,62.113 C0,66.469 3.531,70 7.887,70 L62.113,70 C66.469,70 70,66.469 70,62.113 L70,7.887 C70,3.531 66.469,0 62.113,0 Z M68.027,62.113 C68.027,65.38 65.38,68.027 62.113,68.027 L7.887,68.027 C4.62,68.027 1.971,65.38 1.971,62.113 L1.971,7.887 C1.971,4.62 4.619,1.971 7.887,1.971 L62.113,1.971 C65.38,1.971 68.027,4.619 68.027,7.887 L68.027,62.113 Z" id="outline" fill="#000000" fill-rule="nonzero"></path>
    </g>
</svg>