<?xml version="1.0" encoding="UTF-8"?>
<svg focusable="false" width="70px" height="70px" viewBox="0 0 70 70" version="1.1" xmlns="http://www.w3.org/2000/svg" xmlns:xlink="http://www.w3.org/1999/xlink">
    <!-- Generator: Sketch 57.1 (83088) - https://sketch.com -->
    <title>tech-LT-BG/ElectronicThrottleValves</title>
    <desc>Created with Sketch.</desc>
    <g id="tech-LT-BG/ElectronicThrottleValves" stroke="none" stroke-width="1" fill="none" fill-rule="evenodd">
        <path d="M8,0 L61,0 C65.418278,0 69,3.581722 69,8 L69,62 C69,66.418278 65.418278,70 61,70 L8,70 C3.581722,70 0,64.9861491 0,60.5678711 L0,9.42871094 C0,5.01043294 3.581722,0 8,0 Z" id="Rectangle-2" fill="#FFFFFF"></path>
        <path d="M61.0316,45.6226 C59.9256,45.1456 58.6476,45.6516 58.1666,46.7516 C57.6906,47.8546 58.1956,49.1356 59.2976,49.6136 C60.3976,50.0916 61.6786,49.5846 62.1576,48.4846 C62.6376,47.3816 62.1326,46.1006 61.0316,45.6226 L61.0316,45.6226 Z M58.6756,44.1856 L54.7106,42.4786 C54.3766,42.3326 54.0316,42.2666 53.6886,42.2696 C52.7116,42.2806 51.7816,42.8546 51.3656,43.8206 C51.2236,44.1436 51.1556,44.4936 51.1575572,44.8386 C51.1666,45.8216 51.7426,46.7516 52.7006,47.1626 L56.5666,48.8276 C56.5666,48.8276 56.0146,47.5846 56.6366,46.1576 C57.2546,44.7296 58.6756,44.1856 58.6756,44.1856 L58.6756,44.1856 Z M41.2226,8.4856 C39.7686,7.9326 38.2186,7.6516 36.6166,7.6516 C27.6616,7.6516 18.1966,16.0846 13.5986,28.1616 C10.8586,35.3586 10.0406,42.5206 11.2966,48.3276 C12.5416,54.0856 15.6436,58.0596 20.2656,59.8186 C21.8256,60.4136 23.4986,60.7156 25.2386,60.7156 C34.4426,60.7156 43.9586,52.6066 48.3816,40.9956 C53.9356,26.4106 50.7906,12.1306 41.2226,8.4856 L41.2226,8.4856 Z M49.9776,48.6226 C49.4636,48.1136 49.0586,47.5076 48.7856,46.8376 C43.9486,55.7166 36.3656,62.0396 28.8026,63.5076 C28.8456,63.5076 28.8886,63.5076 28.9306,63.5076 C36.5706,63.5076 44.7136,57.5886 49.9776,48.6226 L49.9776,48.6226 Z M10.8966,27.8346 C10.9716,27.6286 11.0426,27.4236 11.1206,27.2186 C11.5236,26.1626 11.9656,25.1346 12.4356,24.1326 C11.4116,23.6716 10.4236,23.2416 10.0046,23.1016 C9.7656,23.0216 9.4936,22.9396 9.3106,22.9396 C9.0656,22.9396 8.7326,23.2106 8.3216,23.7456 C7.6086,24.6706 7.5646,25.9156 7.7296,26.2956 C8.3966,26.6256 9.8516,27.3306 10.8966,27.8346 L10.8966,27.8346 Z M50.6656,13.6866 C51.5326,15.2646 52.2226,17.0126 52.7286,18.8936 C54.5316,24.9526 54.2826,32.4266 51.8046,39.8586 C52.3956,39.6296 53.0266,39.4916 53.6826,39.4856 C53.7666,39.4846 53.8516,39.4936 53.9366,39.4976 C54.9976,35.9386 55.5586,32.3276 55.5586,28.8606 C55.5566,22.5186 53.7936,17.2086 50.6656,13.6866 L50.6656,13.6866 Z M65.2659158,47.4616 C65.2736,48.1766 65.1296,48.8986 64.8366,49.6016 L64.8296,49.6226 C63.9896,51.5666 62.0816,52.8326 59.9686,52.8466 L59.6506,52.8486 L59.6306,52.8376 C59.0096,52.8066 58.3956,52.6626 57.8086,52.4106 L51.8866,49.8596 C46.1956,59.5466 37.4516,65.7596 28.9326,65.7796 L28.9306,65.7796 C26.7716,65.7796 24.7076,65.3696 22.7936,64.5586 C21.6826,64.0886 20.5946,63.4596 19.5606,62.6866 C19.5536,62.6836 19.5466,62.6806 19.5396,62.6776 C18.1816,62.1046 16.9446,61.3436 15.8236,60.4266 C12.2786,57.9156 9.7986,53.9416 8.7056,48.8886 C7.5286,43.4476 8.0106,36.9696 10.0416,30.3656 C8.9326,29.8306 7.0976,28.9436 6.4356,28.6126 C5.7816,28.2866 5.3106,27.6286 5.1116,26.7646 C4.7736,25.2916 5.2186,23.4296 6.2196,22.1286 C6.8276,21.3386 7.8086,20.2886 9.3106,20.2886 C9.8696,20.2886 10.3776,20.4316 10.8436,20.5866 C11.3856,20.7676 12.5356,21.2686 13.6356,21.7656 C19.1536,11.6686 28.0496,4.9996 36.6166,4.9996 C38.5416,4.9996 40.4086,5.3386 42.1656,6.0076 C43.1946,6.3986 44.1596,6.8936 45.0606,7.4796 C45.5956,7.6386 46.1156,7.8196 46.6196,8.0346 C53.6416,10.9966 57.8326,18.7826 57.8296,28.8616 C57.8296,32.5116 57.2436,36.3106 56.1366,40.0516 L62.0366,42.5966 C63.9836,43.4356 65.2506,45.3446 65.2659158,47.4616 L65.2659158,47.4616 Z M34.3766,28.6676 L46.1756,33.8476 L14.4186,52.8956 L28.8826,36.7006 L19.2196,32.2166 L33.2256,13.2236 L44.5306,18.2396 L34.3766,28.6676 Z" id="Electronic-Throttle-Valves" fill="#000000"></path>
        <path d="M62.113,0 L7.887,0 C3.531,0 0,3.531 0,7.887 L0,62.113 C0,66.469 3.531,70 7.887,70 L62.113,70 C66.469,70 70,66.469 70,62.113 L70,7.887 C70,3.531 66.469,0 62.113,0 Z M68.027,62.113 C68.027,65.38 65.38,68.027 62.113,68.027 L7.887,68.027 C4.62,68.027 1.971,65.38 1.971,62.113 L1.971,7.887 C1.971,4.62 4.619,1.971 7.887,1.971 L62.113,1.971 C65.38,1.971 68.027,4.619 68.027,7.887 L68.027,62.113 Z" id="outline" fill="#000000" fill-rule="nonzero"></path>
    </g>
</svg>