<?xml version="1.0" encoding="UTF-8"?>
<svg focusable="false" width="70px" height="70px" viewBox="0 0 70 70" version="1.1" xmlns="http://www.w3.org/2000/svg" xmlns:xlink="http://www.w3.org/1999/xlink">
    <!-- Generator: Sketch 52.4 (67378) - http://www.bohemiancoding.com/sketch -->
    <title>tech-LT-BG/EngineBrake</title>
    <desc>Created with Sketch.</desc>
    <g id="tech-LT-BG/EngineBrake" stroke="none" stroke-width="1" fill="none" fill-rule="evenodd">
        <path d="M8,0 L61,0 C65.418278,-8.11624501e-16 69,3.581722 69,8 L69,62 C69,66.418278 65.418278,70 61,70 L8,70 C3.581722,70 5.41083001e-16,64.9861491 0,60.5678711 L0,9.42871094 C-5.41083001e-16,5.01043294 3.581722,8.11624501e-16 8,0 Z" id="Rectangle-2" fill="#FFFFFF"></path>
        <path d="M59.268,63.963 L54.8,63.963 L54.8,60.936 L58.913,60.936 L58.913,58.133 L54.8,58.133 L54.8,55.553 L59.043,55.553 L59.043,52.749 L51.511,52.749 L51.511,66.768 L59.268,66.768 L59.268,63.963 Z M50.388,66.768 L47.211,58.936 L50.202,52.749 L46.838,52.749 L44.407,58.358 L44.37,58.358 L44.37,52.749 L41.081,52.749 L41.081,66.768 L44.37,66.768 L44.37,63.309 L45.099,61.891 L46.912,66.768 L50.388,66.768 Z M40.108,66.768 L37.062,52.749 L33.098,52.749 L30.034,66.768 L33.342,66.768 L33.734,64.039 L36.313,64.039 L36.781,66.768 L40.108,66.768 Z M29.603,66.58 C29.453,66.451 29.359,66.282 29.285,66.095 C29.098,65.197 29.079,62.787 28.985,61.666 C28.929,60.693 28.274,60.058 27.36,59.853 L27.36,59.815 C28.743,59.179 29.098,58.113 29.098,56.619 C29.098,53.834 27.752,52.749 25.06,52.749 L20.258,52.749 L20.258,66.768 L23.546,66.768 L23.546,61.234 L24.63,61.234 C25.397,61.291 25.658,61.852 25.752,62.713 C25.845,63.572 25.771,64.729 25.828,65.963 C25.845,66.244 25.92,66.506 26.013,66.768 L29.603,66.768 L29.603,66.58 Z M18.816,62.713 C18.816,60.975 18.499,60.227 17.004,59.367 L17.004,59.328 C18.143,58.713 18.592,57.609 18.592,56.375 C18.592,53.553 16.649,52.749 14.163,52.749 L9.901,52.749 L9.901,66.768 L14.537,66.768 C17.209,66.768 18.816,65.553 18.816,62.713 Z M33.963,34.123 C36.522,34.123 38.592,32.049 38.592,29.494 C38.592,26.939 36.522,24.865 33.963,24.865 C31.407,24.865 29.337,26.939 29.337,29.494 C29.337,32.049 31.407,34.123 33.963,34.123 Z M69.914,50.203 L69.914,61.311 C69.914,66.654 65.332,69.654 60.809,69.654 C55.719,69.654 8.206,69.662 8.206,69.662 C3.091,69.662 0,64.491 0,62.074 L0,50.203 L29.946,50.203 L29.946,37.234 L21.576,37.234 L21.576,40.557 L16.09,40.557 L16.053,19.891 L51.878,19.891 L51.878,40.557 L46.385,40.557 L46.385,37.129 L37.895,37.129 L37.895,50.203 L69.914,50.203 Z M13.191,60.787 L13.191,64.244 C14.836,64.207 15.528,64.319 15.528,62.432 C15.528,60.805 14.592,60.844 13.191,60.787 Z M15.303,56.6 C15.303,55.217 14.35,55.274 13.191,55.274 L13.191,58.264 C14.63,58.17 15.303,58.264 15.303,56.6 Z M23.546,55.274 L23.546,58.713 L24.667,58.713 C25.622,58.713 25.845,57.834 25.845,56.975 C25.845,55.311 25.154,55.234 23.546,55.274 Z M35.042,55.291 L34.089,61.57 L35.996,61.57 L35.08,55.291 L35.042,55.291 Z M15.991,12.545 L51.939,12.545 L51.939,8 L15.991,8 L15.991,12.545 Z M15.991,18.329 L51.939,18.329 L51.939,13.785 L15.991,13.785 L15.991,18.329 Z" id="Kawasaki-Engine-Break-Control" fill="#000000"></path>
        <path d="M62.113,0 L7.887,0 C3.531,0 0,3.531 0,7.887 L0,62.113 C0,66.469 3.531,70 7.887,70 L62.113,70 C66.469,70 70,66.469 70,62.113 L70,7.887 C70,3.531 66.469,0 62.113,0 Z M68.027,62.113 C68.027,65.38 65.38,68.027 62.113,68.027 L7.887,68.027 C4.62,68.027 1.971,65.38 1.971,62.113 L1.971,7.887 C1.971,4.62 4.619,1.971 7.887,1.971 L62.113,1.971 C65.38,1.971 68.027,4.619 68.027,7.887 L68.027,62.113 Z" id="outline" fill="#000000" fill-rule="nonzero"></path>
    </g>
</svg>