<?xml version="1.0" encoding="UTF-8"?>
<svg focusable="false" width="70px" height="70px" viewBox="0 0 70 70" version="1.1" xmlns="http://www.w3.org/2000/svg" xmlns:xlink="http://www.w3.org/1999/xlink">
    <!-- Generator: Sketch 52.4 (67378) - http://www.bohemiancoding.com/sketch -->
    <title>tech-LT-BG/KLCM</title>
    <desc>Created with Sketch.</desc>
    <g id="tech-LT-BG/KLCM" stroke="none" stroke-width="1" fill="none" fill-rule="evenodd">
        <path d="M8,0 L61,0 C65.418278,-8.11624501e-16 69,3.581722 69,8 L69,62 C69,66.418278 65.418278,70 61,70 L8,70 C3.581722,70 5.41083001e-16,64.9861491 0,60.5678711 L0,9.42871094 C-5.41083001e-16,5.01043294 3.581722,8.11624501e-16 8,0 Z" id="Rectangle-2" fill="#FFFFFF"></path>
        <path d="M69.4871771,50.6009624 L69.4871771,62.0346967 C69.479079,66.3677983 65.2489622,70 60.465,70 L10.2638475,70.0144928 C5.76736844,69.9940214 0.649698619,66.3677983 0.600097656,62.0346967 L0.600097656,50.6009624 L69.4871771,50.6009624 Z M24.2898532,26.9143463 C21.566243,25.8004812 19.9111343,23.1511428 19.9111343,20.3540799 C19.9111343,19.4709671 20.076752,18.5727583 20.4272205,17.7047415 C21.5331195,14.9540447 24.1562906,13.2891776 26.9258463,13.287021 C27.8020175,13.2891776 28.6910107,13.4530764 29.5575654,13.811066 C32.2790386,14.9227745 33.9309419,17.5699563 33.9309419,20.3637844 C33.9309419,21.2490538 33.7642557,22.1483408 33.4159242,23.0228273 C32.3121622,25.769211 29.6868541,27.4351564 26.9215723,27.4351564 C26.0432641,27.4351564 25.1521339,27.2669444 24.2898532,26.9143463 Z M6.33582326,29.8656035 C5.86461412,28.8487838 5.46606307,27.7985374 5.14444414,26.7224121 L6.1466985,26.8410231 C6.48648197,27.9085221 6.90533454,28.9479857 7.40005071,29.9518661 L6.33582326,29.8656035 Z M15.4394557,27.9354791 C16.1179541,28.9932736 16.9439057,29.9572575 17.9002145,30.8015521 L10.6493636,30.2160451 C10.0755784,29.2520612 9.57872518,28.244946 9.18017414,27.1990127 L15.4394557,27.9354791 Z M33.1968814,2.11063024 L31.105824,7.31010504 C27.7208114,6.20378792 24.1787291,6.50678511 21.1388424,7.93550848 L18.1459699,7.56242298 L15.7172661,4.76536001 C20.6291673,1.14341148 27.1256561,-0.0157414471 33.1968814,2.11063024 Z M35.8798886,3.27948771 C40.3451561,5.65386421 43.526085,9.61547151 45.04122,14.1701338 L39.6570412,15.4662285 C38.5628957,12.6055469 36.5327429,10.1254988 33.7749407,8.51238924 L35.8798886,3.27948771 Z M44.5155173,27.8599994 C43.5848526,30.051068 42.2866233,31.9628616 40.7415702,33.5878323 L37.2005564,29.5108488 C38.1771667,28.3840444 38.9977758,27.0868714 39.5854516,25.623643 C40.57061,23.1716302 40.7917898,20.6042412 40.3889647,18.1748724 L45.742157,16.8841691 C46.3832579,20.4640646 46.0370634,24.2639296 44.5155173,27.8599994 Z M21.6228736,38.7549586 L23.6092178,33.8110366 C27.7272224,34.8505003 31.9841322,33.8746552 35.2195547,31.3805895 L38.742404,35.4370856 C34.0068055,39.1754885 27.6502903,40.5373584 21.6228736,38.7549586 Z M19.0477851,20.2678173 C19.0477851,19.2693284 19.2315673,18.2514304 19.6301184,17.2712722 C20.8824021,14.1658207 23.8432196,12.2820624 26.9739289,12.2820624 C27.9633613,12.2820624 28.9709581,12.4696834 29.9475685,12.8718825 C33.0237842,14.1302374 34.8915247,17.1203128 34.8915247,20.2775219 C34.8915247,21.2803239 34.7013314,22.2960654 34.3091914,23.2816149 L34.3091914,23.2837715 C33.0569077,26.3870665 30.0960902,28.2686682 26.9696549,28.2686682 C25.9759485,28.2686682 24.9662147,28.0788906 23.9960153,27.6810046 C20.9155256,26.4194149 19.0477851,23.427183 19.0477851,20.2678173 Z M18.8885784,37.700399 C16.39897,36.5239936 14.2769261,34.8720659 12.5780088,32.8912622 L20.5629202,33.5403879 L18.8885784,37.700399 Z M38.3377142,1 C45.7714044,5.12300718 50.165503,12.9159202 50.165503,21.0878493 C50.165503,24.103872 49.5676738,27.1703586 48.3097638,30.1198119 C44.5789657,38.8436227 36.0891463,44.0714669 27.1657129,44.0714669 C24.1497341,44.0714669 21.0822367,43.4734161 18.141389,42.21504 C13.7268976,40.3253284 10.2086134,37.211599 7.80870996,33.4429127 L8.97646262,33.5363246 C11.2658159,36.889489 14.4943086,39.6574871 18.5020185,41.3721856 C21.3280229,42.5822453 24.2688706,43.1566747 27.1657129,43.1566747 C35.7349566,43.1566747 43.8866859,38.1360545 47.4672216,29.7590488 C48.6768331,26.925555 49.2489031,23.9836176 49.2489031,21.0878493 C49.2489031,12.6764852 44.4029442,4.67742177 36.3048801,1 L18.0662579,1 C14.8538648,2.46130541 11.9784885,4.68171657 9.75031341,7.56030569 L8.68667105,7.42931432 C10.6744265,4.73003306 13.2063461,2.57189649 16.0430835,1 L8.22193126,1 C6.49069501,1.0032211 4.8839618,1.5175233 3.53267449,2.39473602 C2.51089091,3.65418587 1.57604481,5.0027528 0.752822116,6.44795271 L0.600097656,7.56030569 C0.189022961,8.56743609 0.222610891,8.79269708 0.220464287,9.94799805 L0.220464287,34.5251465 C3.25361595,41.0607571 7.96970527,46.245709 15.110384,49.303606 C16.2169584,49.7771076 17.3364125,50.1711554 18.464453,50.505076 C20.2772602,50.687605 34.0380661,50.5512451 35.3474946,50.5630558 C43.595821,48.0806619 51.025218,42.2837568 54.8322205,33.3806381 C59.6620798,22.0874638 57.0829349,9.4972601 49.2853953,1 L38.3377142,1 Z M36.9907926,62.6196966 C36.9907926,63.5519923 36.8895662,64.8072003 35.6748487,64.8072003 C34.7435654,64.8072003 34.3983832,64.3000557 34.3983832,63.4497535 L34.4186285,55.9367261 C34.4186285,54.9457191 34.6828295,54.3373482 35.7963205,54.3586057 C36.4644151,54.3586057 36.9300568,55.0267003 36.9300568,56.3223989 L36.9300568,57.2941729 L40.4942402,57.2941729 L40.4942402,56.0187196 C40.4942402,52.9201778 38.672164,51.6254915 35.6343582,51.6254915 C32.3738541,51.6254915 30.8554573,53.1631213 30.8554573,56.4651282 L30.8554573,62.7006778 C30.8554573,65.7992195 32.1309106,67.5403145 35.41166,67.5403145 C39.0568246,67.5403145 40.5549761,65.7182384 40.5549761,63.1055836 L40.5549761,61.2440291 L36.9907926,61.2440291 L36.9907926,62.6196966 Z M51.1230179,51.9888944 L49.2199605,60.9595828 L49.17947,60.9595828 L47.3361362,51.9888944 L42.3142919,51.9888944 L42.3142919,67.1769116 L45.6962677,67.1769116 L45.372343,55.2686315 L45.4128336,55.2686315 L47.8625138,67.1769116 L50.5156591,67.1769116 L53.0260752,55.2686315 L53.0665658,55.2686315 L52.7021505,67.1769116 L56.1043717,67.1769116 L56.1043717,51.9888944 L51.1230179,51.9888944 Z M25.390241,51.9888944 L21.8260576,51.9888944 L21.8260576,67.1769116 L29.7439908,67.1769116 L29.7439908,64.1391057 L25.390241,64.1391057 L25.390241,51.9888944 Z M17.3528606,58.6910979 L20.7955723,67.1769116 L17.0289359,67.1769116 L15.0651427,61.8908661 L14.2755764,63.4305205 L14.2755764,67.1769116 L10.711393,67.1769116 L10.711393,51.9888944 L14.2755764,51.9888944 L14.2755764,58.0645062 L14.316067,58.0645062 L16.9479548,51.9888944 L20.5931194,51.9888944 L17.3528606,58.6910979 Z" id="KLCM" fill="#000000"></path>
        <path d="M62.113,0 L7.887,0 C3.531,0 0,3.531 0,7.887 L0,62.113 C0,66.469 3.531,70 7.887,70 L62.113,70 C66.469,70 70,66.469 70,62.113 L70,7.887 C70,3.531 66.469,0 62.113,0 Z M68.027,62.113 C68.027,65.38 65.38,68.027 62.113,68.027 L7.887,68.027 C4.62,68.027 1.971,65.38 1.971,62.113 L1.971,7.887 C1.971,4.62 4.619,1.971 7.887,1.971 L62.113,1.971 C65.38,1.971 68.027,4.619 68.027,7.887 L68.027,62.113 Z" id="outline" fill="#000000" fill-rule="nonzero"></path>
    </g>
</svg>